<?xml version="1.0" standalone="no"?>
<!DOCTYPE svg PUBLIC "-//W3C//DTD SVG 20010904//EN"
 "http://www.w3.org/TR/2001/REC-SVG-20010904/DTD/svg10.dtd">
<svg version="1.0" xmlns="http://www.w3.org/2000/svg"
 width="310.000000pt" height="310.000000pt" viewBox="0 0 310.000000 310.000000"
 preserveAspectRatio="xMidYMid meet">
<metadata>
Created by potrace 1.14, written by Peter Selinger 2001-2017
</metadata>
<g transform="translate(0.000000,310.000000) scale(0.100000,-0.100000)"
fill="#000000" stroke="none">
<path d="M1376 3093 c-4 -5 -24 -9 -44 -9 -20 -1 -45 -5 -54 -9 -10 -4 -25 -5
-33 -1 -8 3 -15 2 -15 -3 0 -8 -11 -11 -59 -14 -16 -1 -27 -5 -24 -9 4 -8 2
-9 -34 -13 -13 -1 -30 -8 -40 -16 -13 -11 -15 -11 -9 -1 6 10 0 9 -23 -2 -17
-9 -31 -13 -31 -9 0 5 -6 1 -13 -7 -13 -16 -30 -23 -59 -24 -10 0 -18 -3 -18
-7 0 -3 -20 -14 -45 -25 -25 -10 -45 -22 -45 -27 0 -4 -4 -6 -9 -3 -5 3 -14
-1 -21 -10 -7 -8 -19 -13 -27 -10 -7 3 -13 -1 -13 -10 0 -8 -4 -13 -8 -10 -5
3 -18 -4 -30 -14 -12 -11 -26 -20 -32 -20 -5 0 -10 -5 -10 -11 0 -5 -5 -7 -10
-4 -6 3 -13 -1 -16 -9 -3 -9 -11 -16 -18 -16 -6 0 -30 -18 -53 -40 -24 -21
-43 -38 -43 -36 0 3 -28 -23 -62 -57 -35 -34 -66 -60 -70 -59 -5 1 -7 -1 -5
-6 2 -8 -9 -22 -55 -72 -14 -16 -23 -31 -20 -34 3 -3 -2 -6 -11 -6 -10 0 -14
-5 -11 -15 4 -10 0 -15 -11 -15 -9 0 -14 -4 -10 -9 3 -5 1 -12 -5 -16 -6 -4
-8 -10 -5 -15 3 -5 -4 -11 -15 -15 -11 -3 -19 -9 -19 -13 2 -17 -14 -51 -22
-46 -5 3 -9 -4 -9 -15 0 -12 -4 -21 -9 -21 -5 0 -12 -11 -15 -25 -4 -16 -11
-23 -18 -19 -6 4 -8 3 -5 -4 10 -15 -3 -43 -16 -35 -5 3 -7 1 -4 -4 4 -6 0
-23 -8 -39 -7 -15 -12 -31 -9 -36 3 -4 0 -8 -5 -8 -6 0 -10 -3 -10 -7 3 -16
-23 -73 -33 -73 -6 0 -6 -6 1 -14 9 -11 9 -16 -1 -23 -7 -4 -14 -17 -15 -28
-2 -21 -10 -60 -13 -60 -4 0 -12 -43 -13 -67 -1 -16 -5 -28 -9 -28 -5 0 -6
-11 -4 -25 3 -14 1 -25 -3 -25 -5 0 -7 -18 -6 -40 1 -22 -1 -40 -5 -40 -10 0
-9 -293 1 -312 7 -13 6 -18 -3 -18 -9 0 -9 -3 2 -10 8 -5 11 -12 8 -16 -4 -4
-3 -16 3 -27 9 -15 8 -18 -2 -12 -8 6 -10 4 -4 -5 4 -6 10 -29 12 -49 3 -20
10 -42 17 -50 9 -12 8 -13 -4 -6 -13 8 -13 7 -1 -8 7 -9 10 -17 6 -17 -4 0 0
-11 9 -25 11 -17 12 -25 5 -25 -8 0 -6 -7 4 -18 10 -10 14 -22 11 -25 -4 -4
-1 -14 7 -24 12 -15 12 -16 -1 -8 -9 5 -8 0 4 -13 11 -12 16 -22 12 -22 -4 0
-1 -10 6 -23 7 -12 11 -28 9 -36 -1 -8 2 -10 10 -5 9 5 10 2 6 -9 -3 -10 -2
-17 3 -17 6 0 9 -3 8 -7 -2 -10 12 -45 26 -62 5 -7 11 -20 12 -28 2 -8 9 -22
18 -31 8 -10 16 -21 18 -27 2 -5 6 -9 10 -8 3 1 5 -5 4 -15 -2 -9 4 -24 13
-32 9 -8 23 -24 31 -34 13 -18 13 -19 0 -12 -8 4 -4 -2 9 -13 13 -12 20 -21
16 -21 -5 0 2 -8 13 -19 12 -10 22 -23 22 -30 0 -6 5 -11 10 -11 6 0 10 -7 10
-16 0 -8 4 -13 9 -9 10 6 37 -34 33 -48 -1 -5 2 -6 7 -3 11 7 33 -18 24 -27
-3 -4 -1 -7 5 -7 6 0 37 -25 68 -55 31 -30 61 -52 67 -48 5 3 8 2 5 -3 -3 -5
5 -19 18 -32 13 -12 24 -20 24 -17 0 4 23 -12 51 -34 28 -22 55 -38 60 -35 5
3 9 -2 9 -10 0 -9 3 -16 8 -15 15 2 52 -14 52 -22 0 -5 9 -9 19 -9 11 0 22 -4
25 -9 7 -11 88 -51 104 -51 7 0 12 -4 12 -10 0 -5 9 -10 20 -10 12 0 33 -8 47
-17 21 -14 25 -15 18 -3 -6 11 -3 10 11 -2 11 -10 34 -18 52 -20 18 -1 32 -6
32 -11 0 -5 7 -7 15 -4 8 4 17 2 20 -4 4 -5 12 -9 18 -8 7 1 20 -1 30 -6 9 -4
28 -5 42 -3 15 3 22 1 18 -5 -4 -6 0 -8 10 -4 10 3 17 2 17 -2 0 -10 19 -9 37
2 6 4 14 3 18 -3 4 -6 10 -8 15 -5 5 3 11 2 14 -3 7 -12 267 -15 299 -3 18 7
26 7 22 1 -3 -6 -1 -10 4 -10 6 0 11 4 11 8 0 5 14 8 30 7 17 -1 30 3 30 9 0
6 4 5 9 -3 8 -12 12 -12 25 -2 9 7 22 11 31 8 8 -4 17 -2 20 3 3 5 12 7 20 3
8 -3 15 -1 15 4 0 5 6 10 13 10 39 3 78 11 89 19 7 6 20 10 28 9 8 0 17 3 20
7 3 4 15 9 25 11 11 1 27 7 35 12 8 5 20 10 27 11 18 3 107 48 114 57 3 5 9 8
13 8 17 -3 25 1 46 19 12 11 27 17 31 14 5 -3 9 0 9 5 0 6 7 11 15 11 8 0 15
5 15 10 0 6 7 10 15 10 8 0 15 4 15 8 0 5 12 15 28 23 15 8 35 22 45 33 9 10
17 15 17 11 0 -4 11 5 25 21 14 16 25 26 25 22 0 -3 16 9 35 28 20 19 40 34
45 34 6 0 10 4 10 10 0 8 43 58 110 125 11 12 20 25 20 31 0 5 9 17 20 27 12
10 18 23 14 29 -4 7 -3 8 4 4 7 -4 12 -2 12 4 0 6 4 9 8 6 4 -2 9 5 9 16 1 11
8 25 16 31 7 7 24 33 38 60 13 26 28 47 32 47 5 0 5 5 2 10 -3 6 -1 10 6 10 7
0 9 3 6 6 -3 4 -1 16 5 28 7 11 11 24 10 29 -1 4 2 7 8 7 5 0 10 9 10 21 0 11
4 18 9 15 4 -3 8 2 8 12 0 25 14 62 23 62 5 0 7 8 5 17 -1 10 1 23 6 29 5 6
10 23 11 38 1 14 5 26 9 26 4 0 10 23 14 50 4 28 10 50 15 50 4 0 6 14 4 31
-2 16 0 28 4 25 10 -6 9 25 -1 41 -4 6 -2 15 4 18 5 4 8 13 5 21 -3 8 0 14 6
14 7 0 7 4 -1 14 -8 9 -8 16 -2 20 14 9 12 259 -3 268 -8 6 -7 8 2 8 8 0 10 5
6 12 -4 6 -8 25 -9 42 0 17 -5 38 -9 45 -7 10 -5 12 5 6 12 -8 12 -6 0 8 -11
14 -11 17 0 17 8 0 5 6 -7 15 -10 8 -14 15 -7 15 11 0 6 40 -6 40 -3 0 -7 14
-8 31 -1 17 -9 44 -17 60 -9 18 -11 29 -4 29 6 0 4 8 -4 18 -9 9 -13 23 -11
30 3 6 0 12 -7 12 -6 0 -8 4 -5 10 3 6 2 10 -2 10 -5 0 -10 12 -11 28 -1 15
-7 29 -12 30 -6 2 -10 13 -10 24 0 12 -7 26 -16 32 -9 7 -17 24 -17 39 -1 15
-8 27 -15 27 -7 0 -10 5 -7 10 3 6 1 10 -5 10 -7 0 -10 6 -7 14 3 8 -1 17 -10
20 -9 4 -13 9 -10 12 3 4 1 12 -6 20 -30 33 -35 42 -30 48 4 3 1 6 -5 6 -7 0
-12 9 -12 21 0 11 -4 18 -9 14 -12 -7 -33 29 -24 39 3 3 -1 6 -11 6 -9 0 -14
5 -11 10 3 6 -1 10 -10 10 -9 0 -13 5 -10 10 3 6 1 10 -6 10 -7 0 -10 3 -7 6
7 7 -44 60 -54 56 -8 -2 -12 15 -8 33 1 6 -1 7 -5 3 -4 -3 -22 9 -40 27 -18
19 -35 32 -39 30 -3 -3 -4 -2 -1 2 7 9 -16 34 -25 28 -5 -3 -11 4 -15 15 -3
11 -13 20 -20 20 -8 0 -27 12 -42 26 -55 50 -60 54 -68 54 -4 0 -14 8 -22 18
-8 9 -11 11 -7 2 5 -8 -7 -3 -25 13 -18 15 -41 27 -52 27 -11 0 -17 5 -14 10
5 9 -9 15 -18 8 -2 -2 -11 5 -21 15 -10 9 -24 17 -32 17 -8 0 -14 5 -14 11 0
5 -4 8 -9 4 -5 -3 -12 -1 -16 5 -3 5 -15 10 -26 10 -10 0 -19 5 -19 11 0 5 -4
7 -10 4 -5 -3 -10 -1 -10 5 0 6 -5 8 -10 5 -6 -4 -22 1 -35 9 -14 9 -25 14
-25 10 0 -4 -8 0 -17 7 -15 12 -16 12 -8 -1 6 -11 3 -10 -12 3 -11 9 -22 14
-26 11 -3 -3 -12 -2 -19 2 -7 5 -17 9 -23 11 -5 1 -20 4 -32 7 -13 3 -31 8
-40 10 -10 2 -31 7 -47 12 -21 5 -27 4 -22 -4 5 -8 2 -10 -8 -6 -9 3 -16 10
-16 15 0 4 -13 6 -30 4 -16 -2 -32 0 -34 4 -6 10 -37 8 -55 -4 -9 -5 -12 -4
-7 3 9 15 -224 14 -243 -1 -12 -9 -13 -9 -7 1 4 6 3 12 -1 12 -5 0 -15 -6 -22
-12 -11 -10 -13 -10 -7 0 8 13 3 16 -8 5z"/>
</g>
</svg>
